<?xml version="1.0" encoding="UTF-8"?>
<svg id="Logo-oficial" xmlns="http://www.w3.org/2000/svg" version="1.1" xmlns:xlink="http://www.w3.org/1999/xlink" viewBox="0 0 3569.48 954.2">
  <!-- Generator: Adobe Illustrator 29.8.3, SVG Export Plug-In . SVG Version: 2.1.1 Build 3)  -->
  <defs>
    <style>
      .st0 {
        fill: #5c1de5;
      }

      .st1, .st2 {
        fill: #fff;
      }

      .st2 {
        stroke-miterlimit: 10;
        stroke-width: 4.14px;
      }

      .st2, .st3 {
        stroke: #fff;
      }

      .st3 {
        fill: none;
        stroke-linecap: round;
        stroke-linejoin: round;
        stroke-width: 3px;
      }

      .st4 {
        fill: #0ec1fe;
      }

      .st5 {
        fill: url(#Degradado_sin_nombre_77);
      }

      .st6 {
        fill: url(#Degradado_sin_nombre_137);
      }

      .st7 {
        font-family: FranklinGothic-Medium, 'Franklin Gothic Medium';
        font-size: 77px;
        font-weight: 500;
        letter-spacing: .02em;
      }

      .st7, .st8 {
        fill: #3e8fc6;
      }
    </style>
    <linearGradient id="Degradado_sin_nombre_137" data-name="Degradado sin nombre 137" x1="752.22" y1="124.94" x2="1052.63" y2="645.27" gradientUnits="userSpaceOnUse">
      <stop offset="0" stop-color="#6f44d6"/>
      <stop offset=".33" stop-color="#6232da"/>
      <stop offset=".54" stop-color="#5824de"/>
    </linearGradient>
    <linearGradient id="Degradado_sin_nombre_77" data-name="Degradado sin nombre 77" x1="481.09" y1="803.47" x2="848.36" y2="167.35" gradientUnits="userSpaceOnUse">
      <stop offset="0" stop-color="#fff"/>
      <stop offset=".14" stop-color="#d6c9f3"/>
      <stop offset=".31" stop-color="#aa8fe7"/>
      <stop offset=".46" stop-color="#8a65de"/>
      <stop offset=".57" stop-color="#774bd9"/>
      <stop offset=".64" stop-color="#7042d7"/>
    </linearGradient>
  </defs>
  <polygon class="st1" points="636 159.62 636 293.18 557.59 340.14 530.19 356.55 465.52 395.28 445.02 407.55 326.86 344.76 282.26 321.06 282.26 731.39 262.06 720.65 158.61 665.68 158.61 128.12 282.26 193.83 439.42 277.35 465.52 261.72 517.83 230.39 610.78 174.72 636 159.62"/>
  <polygon class="st6" points="1024.95 240.62 1024.95 658.52 974.32 688.84 898.17 734.45 898.17 528.61 842.27 502.47 788.87 477.5 788.87 405.16 833.91 378.19 898.17 408.24 898.17 309.11 788.87 258 763.56 246.16 763.56 118.39 788.87 130.23 855.82 161.53 898.17 181.34 1024.95 240.62"/>
  <polygon class="st5" points="763.56 118.39 763.56 689.76 636 766.15 532.26 828.28 465.52 794.48 465.52 728.1 636 626 636 159.62 730.59 102.97 763.56 118.39"/>
  <polygon class="st1" points="408.72 539.65 399.35 572.25 314.9 523.7 303.82 517.33 303.82 493.49 316.13 486.41 403.43 436.22 403.43 472.79 347.94 504.7 408.72 539.65"/>
  <polygon class="st1" points="512.03 544.16 520.32 577.05 606.33 531.32 617.61 525.31 618.4 501.49 606.33 494.01 520.73 440.96 519.52 477.51 573.93 511.24 512.03 544.16"/>
  <polygon class="st1" points="506.02 425.57 455 602.96 420.5 591.93 422.35 585.48 431.73 552.88 468.93 423.5 506.02 425.57"/>
  <g>
    <path class="st2" d="M1496.28,396.53h-37.47v-155.21l-56.42,155.21h-19.26l-56.72-155.21v155.21h-30v-177.29h57.47l42.69,114.17,41.95-114.17h57.77v177.29Z"/>
    <path class="st2" d="M1723.4,396.53h-39.26l-16.27-42.21h-78.37l-15.97,42.21h-31.35l67.62-177.29h45.23l68.37,177.29ZM1658.02,328.73l-29.71-79.1-29.71,79.1h59.41Z"/>
    <path class="st2" d="M1919.32,396.53h-42.84l-45.08-69.88-47.77,69.88h-34.18l64.49-92.35-55.38-84.94h42.69l37.62,58.97,39.86-58.97h34.33l-56.72,80.92,62.99,96.37Z"/>
    <path class="st2" d="M2101.14,396.53h-36.72v-177.29h83.44c23.78,0,41.42,5.22,52.92,15.65,11.49,10.43,17.24,22.75,17.24,36.95,0,16.19-6.22,29.31-18.66,39.35-12.44,10.05-28.21,15.07-47.32,15.07h-50.9v70.27ZM2101.14,298.86h43.44c11.34,0,20-2.42,25.97-7.27,5.97-4.85,8.96-11.3,8.96-19.35,0-7.27-2.76-13.51-8.29-18.7-5.52-5.2-15.5-7.79-29.93-7.79h-40.15v53.12Z"/>
    <path class="st2" d="M2416.33,396.53h-39.26l-16.27-42.21h-78.37l-15.97,42.21h-31.35l67.62-177.29h45.23l68.37,177.29ZM2350.95,328.73l-29.71-79.1-29.71,79.1h59.41Z"/>
    <path class="st2" d="M2517.76,396.53h-39.41v-149.88h-54.19v-27.41h147.78v27.41h-54.19v149.88Z"/>
    <path class="st2" d="M2775.48,396.53h-38.81l-31.65-72.86h-51.65v72.86h-36.72v-177.29h88.37c24.58,0,42.64,4.83,54.19,14.48,11.54,9.66,17.32,22.15,17.32,37.47,0,22.77-12.24,38.45-36.72,47.02l35.68,78.32ZM2653.38,298.08h45.68c13.23,0,23.09-2.42,29.56-7.27,6.47-4.85,9.7-11.51,9.7-20,0-7.79-3.19-14.09-9.55-18.9-6.37-4.8-15.28-7.21-26.72-7.21h-48.66v53.38Z"/>
    <path class="st2" d="M2872.14,396.53h-36.72v-177.29h36.72v177.29Z"/>
    <path class="st2" d="M3053.13,334.97l34.03,3.25c-2.19,17.75-10.08,32.36-23.66,43.83-13.58,11.47-31.42,17.21-53.51,17.21-18.61,0-33.71-4.07-45.3-12.21-11.59-8.14-20.52-19.18-26.79-33.12-6.27-13.94-9.4-29.31-9.4-46.11,0-27.02,7.36-48.99,22.09-65.92,14.73-16.93,34.98-25.39,60.75-25.39,20.2,0,37.02,5.41,50.45,16.24,13.43,10.83,21.89,26.32,25.38,46.5l-34.03,3.12c-6.27-26.76-20.1-40.13-41.5-40.13-13.73,0-24.41,5.56-32.02,16.69-7.61,11.13-11.42,27.26-11.42,48.38s4.08,37.69,12.24,48.64c8.16,10.95,18.96,16.43,32.39,16.43,10.75,0,19.9-3.68,27.47-11.04,7.56-7.36,11.84-16.15,12.84-26.37Z"/>
    <path class="st2" d="M3175.31,396.53h-36.72v-177.29h36.72v177.29Z"/>
    <path class="st2" d="M3317.49,399.26c-27.07,0-48.14-8.83-63.22-26.5-15.08-17.66-22.61-39.48-22.61-65.46s8.01-47.38,24.03-64.75c16.02-17.36,37.17-26.04,63.44-26.04s47.39,8.68,62.77,26.04c15.38,17.36,23.06,39.08,23.06,65.14,0,27.36-7.99,49.46-23.96,66.3-15.97,16.84-37.15,25.26-63.52,25.26ZM3317.79,373.54c13.23,0,24.43-4.76,33.59-14.29,9.15-9.52,13.73-26.8,13.73-51.82,0-20.35-3.78-36.3-11.34-47.86-7.56-11.56-19.31-17.34-35.23-17.34-31.45,0-47.17,22.04-47.17,66.11,0,21.39,4,37.6,12.02,48.64,8.01,11.04,19.48,16.56,34.41,16.56Z"/>
  </g>
  <g>
    <path class="st4" d="M2012.93,610.62h-34.51l-14.3-30.15h-68.89l-14.04,30.15h-27.56l59.44-126.64h39.76l60.1,126.64ZM1955.45,562.19l-26.11-56.5-26.11,56.5h52.23Z"/>
    <path class="st4" d="M2218.11,610.62h-31.36l-67.97-80.9c-1.05-1.24-2.76-3.25-5.12-6.03-1.05-1.24-2.67-3.18-4.86-5.84v92.77h-25.98v-126.64h35.69l62.72,74.59c.53.62,4.33,5.17,11.42,13.64v-88.23h25.46v126.64Z"/>
    <path class="st4" d="M2446.39,610.62h-34.51l-14.3-30.15h-68.89l-14.04,30.15h-27.56l59.44-126.64h39.76l60.1,126.64ZM2388.92,562.19l-26.11-56.5-26.11,56.5h52.23Z"/>
    <path class="st4" d="M2572.45,610.62h-34.25v-53.44l-61.02-73.2h39.1l42.52,52.23,40.68-52.23h30.97l-58,73.2v53.44Z"/>
    <path class="st4" d="M2821.07,610.62h-34.51l-14.3-30.15h-68.89l-14.04,30.15h-27.56l59.44-126.64h39.76l60.1,126.64ZM2763.6,562.19l-26.11-56.5-26.11,56.5h52.23Z"/>
  </g>
  <g id="FRECHA_oval">
    <path class="st0" d="M2893.13,544.65l502.43,20-502.43,20c-11.05.44-20.36-8.16-20.8-19.2-.52-11.6,9.2-21.3,20.8-20.8h0Z"/>
  </g>
  <g id="FRECHA_oval1" data-name="FRECHA_oval">
    <path class="st0" d="M1788.13,584.65l-502.43-20,502.43-20c11.05-.44,20.36,8.16,20.8,19.2.52,11.6-9.2,21.3-20.8,20.8h0Z"/>
  </g>
  <text class="st7" transform="translate(1296.93 757.54)"><tspan x="0" y="0" xml:space="preserve">INGENIERO DE SISTEMAS    DESARROLLADOR DE SOFTWARE</tspan></text>
  <circle class="st8" cx="2211.96" cy="738" r="11.74"/>
  <line class="st3" x1="1153.57" y1="184.04" x2="1153.57" y2="758.33"/>
</svg>